<svg width="368" height="215" viewBox="0 0 368 215" fill="none" xmlns="http://www.w3.org/2000/svg">
<g clip-path="url(#clip0_311_4787)">
<path d="M223.312 119.494H7.55484C5.55187 119.492 3.63157 118.695 2.21525 117.279C0.798932 115.864 0.00225484 113.944 0 111.942V7.55165C0.00225484 5.54952 0.798932 3.63004 2.21525 2.21432C3.63157 0.798595 5.55187 0.00225389 7.55484 0H223.312C225.315 0.00225389 227.236 0.798595 228.652 2.21432C230.068 3.63004 230.865 5.54952 230.867 7.55165V111.942C230.865 113.944 230.068 115.864 228.652 117.279C227.236 118.695 225.315 119.492 223.312 119.494ZM7.55484 0.88843C5.78751 0.890428 4.09314 1.59308 2.84345 2.84225C1.59376 4.09141 0.890804 5.78507 0.888805 7.55165V111.942C0.890804 113.709 1.59376 115.402 2.84345 116.652C4.09314 117.901 5.78751 118.603 7.55484 118.605H223.312C225.08 118.603 226.774 117.901 228.024 116.652C229.273 115.402 229.976 113.709 229.978 111.942V7.55165C229.976 5.78507 229.273 4.09141 228.024 2.84225C226.774 1.59308 225.08 0.890428 223.312 0.88843H7.55484Z" fill="#3F3D56"/>
<path d="M41.4405 25.9866C43.6495 25.9866 45.4402 24.1967 45.4402 21.9887C45.4402 19.7807 43.6495 17.9907 41.4405 17.9907C39.2316 17.9907 37.4409 19.7807 37.4409 21.9887C37.4409 24.1967 39.2316 25.9866 41.4405 25.9866Z" fill="#CCCCCC"/>
<path d="M41.4405 41.0901C43.6495 41.0901 45.4402 39.3002 45.4402 37.0922C45.4402 34.8842 43.6495 33.0942 41.4405 33.0942C39.2316 33.0942 37.4409 34.8842 37.4409 37.0922C37.4409 39.3002 39.2316 41.0901 41.4405 41.0901Z" fill="#CCCCCC"/>
<path d="M41.4405 56.1931C43.6495 56.1931 45.4402 54.4032 45.4402 52.1952C45.4402 49.9872 43.6495 48.1973 41.4405 48.1973C39.2316 48.1973 37.4409 49.9872 37.4409 52.1952C37.4409 54.4032 39.2316 56.1931 41.4405 56.1931Z" fill="#CCCCCC"/>
<path d="M41.4405 71.2966C43.6495 71.2966 45.4402 69.5067 45.4402 67.2987C45.4402 65.0907 43.6495 63.3008 41.4405 63.3008C39.2316 63.3008 37.4409 65.0907 37.4409 67.2987C37.4409 69.5067 39.2316 71.2966 41.4405 71.2966Z" fill="#CCCCCC"/>
<path d="M108.768 101.503C110.977 101.503 112.767 99.7133 112.767 97.5053C112.767 95.2973 110.977 93.5073 108.768 93.5073C106.559 93.5073 104.768 95.2973 104.768 97.5053C104.768 99.7133 106.559 101.503 108.768 101.503Z" fill="#CCCCCC"/>
<path d="M79.8815 101.503C82.0904 101.503 83.8811 99.7133 83.8811 97.5053C83.8811 95.2973 82.0904 93.5073 79.8815 93.5073C77.6725 93.5073 75.8818 95.2973 75.8818 97.5053C75.8818 99.7133 77.6725 101.503 79.8815 101.503Z" fill="#CCCCCC"/>
<path d="M168.317 101.503C170.526 101.503 172.317 99.7133 172.317 97.5053C172.317 95.2973 170.526 93.5073 168.317 93.5073C166.109 93.5073 164.318 95.2973 164.318 97.5053C164.318 99.7133 166.109 101.503 168.317 101.503Z" fill="#CCCCCC"/>
<path d="M138.098 101.503C140.307 101.503 142.098 99.7133 142.098 97.5053C142.098 95.2973 140.307 93.5073 138.098 93.5073C135.889 93.5073 134.099 95.2973 134.099 97.5053C134.099 99.7133 135.889 101.503 138.098 101.503Z" fill="#CCCCCC"/>
<path d="M192.982 22.4329H61.4385C61.3207 22.4329 61.2076 22.3861 61.1243 22.3027C61.041 22.2194 60.9941 22.1065 60.9941 21.9886C60.9941 21.8708 61.041 21.7579 61.1243 21.6745C61.2076 21.5912 61.3207 21.5444 61.4385 21.5444H192.982C193.1 21.5444 193.213 21.5912 193.296 21.6745C193.379 21.7579 193.426 21.8708 193.426 21.9886C193.426 22.1065 193.379 22.2194 193.296 22.3027C193.213 22.3861 193.1 22.4329 192.982 22.4329Z" fill="#CCCCCC"/>
<path d="M192.982 37.5364H61.4385C61.3207 37.5364 61.2076 37.4896 61.1243 37.4063C61.041 37.323 60.9941 37.21 60.9941 37.0922C60.9941 36.9744 61.041 36.8614 61.1243 36.7781C61.2076 36.6948 61.3207 36.6479 61.4385 36.6479H192.982C193.1 36.6479 193.213 36.6948 193.296 36.7781C193.379 36.8614 193.426 36.9744 193.426 37.0922C193.426 37.21 193.379 37.323 193.296 37.4063C193.213 37.4896 193.1 37.5364 192.982 37.5364Z" fill="#CCCCCC"/>
<path d="M192.982 52.6394H61.4385C61.3207 52.6394 61.2076 52.5926 61.1243 52.5093C61.041 52.426 60.9941 52.313 60.9941 52.1952C60.9941 52.0774 61.041 51.9644 61.1243 51.8811C61.2076 51.7978 61.3207 51.751 61.4385 51.751H192.982C193.1 51.751 193.213 51.7978 193.296 51.8811C193.379 51.9644 193.426 52.0774 193.426 52.1952C193.426 52.313 193.379 52.426 193.296 52.5093C193.213 52.5926 193.1 52.6394 192.982 52.6394Z" fill="#CCCCCC"/>
<path d="M192.982 67.7429H61.4385C61.3207 67.7429 61.2076 67.6961 61.1243 67.6128C61.041 67.5295 60.9941 67.4165 60.9941 67.2987C60.9941 67.1809 61.041 67.0679 61.1243 66.9846C61.2076 66.9013 61.3207 66.8545 61.4385 66.8545H192.982C193.1 66.8545 193.213 66.9013 193.296 66.9846C193.379 67.0679 193.426 67.1809 193.426 67.2987C193.426 67.4165 193.379 67.5295 193.296 67.6128C193.213 67.6961 193.1 67.7429 192.982 67.7429Z" fill="#CCCCCC"/>
<path d="M86.325 82.8461H73.4373C72.8482 82.8454 72.2835 82.6112 71.8669 82.1948C71.4503 81.7784 71.216 81.2139 71.2153 80.625V68.6312C71.216 68.0424 71.4503 67.4778 71.8669 67.0614C72.2835 66.6451 72.8482 66.4108 73.4373 66.4102H86.325C86.9141 66.4108 87.4789 66.6451 87.8955 67.0614C88.312 67.4778 88.5463 68.0424 88.547 68.6312V80.625C88.5463 81.2139 88.312 81.7784 87.8955 82.1948C87.4789 82.6112 86.9141 82.8454 86.325 82.8461Z" fill="#499EFF"/>
<path d="M115.211 82.8459H102.324C101.734 82.8452 101.17 82.611 100.753 82.1946C100.337 81.7782 100.102 81.2137 100.102 80.6248V53.5277C100.102 52.9389 100.337 52.3743 100.753 51.9579C101.17 51.5415 101.734 51.3073 102.324 51.3066H115.211C115.8 51.3073 116.365 51.5415 116.782 51.9579C117.198 52.3743 117.433 52.9389 117.433 53.5277V80.6248C117.433 81.2137 117.198 81.7782 116.782 82.1946C116.365 82.611 115.8 82.8452 115.211 82.8459Z" fill="#499EFF"/>
<path d="M144.542 82.8462H131.654C131.065 82.8455 130.5 82.6113 130.084 82.1949C129.667 81.7785 129.433 81.214 129.432 80.6251V38.4247C129.433 37.8358 129.667 37.2713 130.084 36.8549C130.5 36.4385 131.065 36.2043 131.654 36.2036H144.542C145.131 36.2043 145.696 36.4385 146.112 36.8549C146.529 37.2713 146.763 37.8358 146.764 38.4247V80.6251C146.763 81.214 146.529 81.7785 146.112 82.1949C145.696 82.6113 145.131 82.8455 144.542 82.8462Z" fill="#499EFF"/>
<path d="M174.761 82.8461H161.873C161.284 82.8454 160.72 82.6112 160.303 82.1948C159.886 81.7784 159.652 81.2139 159.651 80.625V23.7655C159.652 23.1766 159.886 22.6121 160.303 22.1957C160.72 21.7793 161.284 21.5451 161.873 21.5444H174.761C175.35 21.5451 175.915 21.7793 176.332 22.1957C176.748 22.6121 176.982 23.1766 176.983 23.7655V80.625C176.982 81.2139 176.748 81.7784 176.332 82.1948C175.915 82.6112 175.35 82.8454 174.761 82.8461Z" fill="#499EFF"/>
<path d="M294.84 212.487C290.844 209.112 288.416 203.78 289.053 198.589C289.69 193.398 293.633 188.626 298.747 187.524C303.861 186.421 309.692 189.473 311.245 194.467C312.1 184.838 313.085 174.807 318.206 166.608C322.843 159.183 330.875 153.871 339.579 152.921C348.283 151.97 357.447 155.56 362.876 162.427C368.304 169.294 369.634 179.278 365.832 187.162C363.031 192.97 357.871 197.292 352.464 200.809C334.994 212.076 314.041 216.658 293.46 213.712L294.84 212.487Z" fill="#F2F2F2"/>
<path d="M354.268 155.759C347.086 161.606 340.497 168.146 334.597 175.284C325.363 186.416 317.891 198.898 312.441 212.293C312.042 213.27 313.63 213.696 314.024 212.73C322.942 190.959 337.177 171.77 355.429 156.919C356.249 156.252 355.081 155.097 354.268 155.759Z" fill="white"/>
<path d="M252.692 90.201C252.187 90.1997 251.683 90.1492 251.187 90.0502C251.097 90.0322 251.006 90.0128 250.916 89.9919L142.083 64.663C140.901 64.3877 140.115 63.6444 140.256 62.9336C140.315 62.7243 140.431 62.5355 140.591 62.388C140.751 62.2405 140.949 62.1399 141.162 62.0974C141.688 61.9527 142.241 61.9404 142.772 62.0617L252.281 84.9218C254.746 85.4363 256.458 86.949 256.177 88.3651C256.031 89.1063 255.378 89.6808 254.339 89.9832C253.803 90.1326 253.248 90.2059 252.692 90.201Z" fill="#3F3D56"/>
<path d="M229.637 86.6971C230.2 87.028 230.829 87.2314 231.479 87.2931C232.13 87.3548 232.786 87.2731 233.401 87.0539C234.017 86.8348 234.577 86.4833 235.041 86.0245C235.506 85.5656 235.865 85.0105 236.092 84.3981L251.969 84.7291L247.57 77.7495L233.168 78.5053C232.113 78.1923 230.98 78.2768 229.984 78.7428C228.988 79.2088 228.197 80.0239 227.762 81.0336C227.327 82.0434 227.277 83.1776 227.623 84.2214C227.968 85.2652 228.685 86.1461 229.637 86.6971Z" fill="#FFB8B8"/>
<path d="M236.533 84.1618L236.451 79.2973C236.445 78.7952 236.627 78.3091 236.961 77.9346C237.296 77.56 237.759 77.3243 238.258 77.2736L266.789 74.5214L290.561 66.7307C291.278 66.4956 292.035 66.4053 292.788 66.4652C293.541 66.5252 294.274 66.7341 294.945 67.0798C295.616 67.4255 296.212 67.9011 296.698 68.4791C297.183 69.057 297.549 69.7256 297.774 70.4461C297.999 71.1666 298.078 71.9246 298.007 72.6761C297.936 73.4275 297.717 74.1573 297.361 74.8231C297.006 75.489 296.521 76.0775 295.936 76.5545C295.351 77.0315 294.677 77.3875 293.953 77.6017L267.641 85.3887L238.583 86.1265C238.144 86.1371 237.713 86.0031 237.358 85.7452C237.002 85.4873 236.741 85.1197 236.615 84.699C236.564 84.5245 236.536 84.3437 236.533 84.1618Z" fill="#3F3D56"/>
<path d="M278.755 209.572L273.307 209.572L270.715 188.566L278.756 188.566L278.755 209.572Z" fill="#FFB8B8"/>
<path d="M280.145 214.851L262.577 214.851V214.629C262.577 213.731 262.754 212.842 263.098 212.013C263.441 211.184 263.945 210.43 264.58 209.796C265.215 209.161 265.969 208.658 266.798 208.314C267.628 207.971 268.517 207.794 269.415 207.794H269.415L280.145 207.794L280.145 214.851Z" fill="#2F2E41"/>
<path d="M294.753 209.572L289.305 209.572L286.713 188.566L294.754 188.566L294.753 209.572Z" fill="#FFB8B8"/>
<path d="M296.143 214.851L278.576 214.851V214.629C278.576 213.731 278.753 212.842 279.096 212.013C279.44 211.184 279.943 210.43 280.578 209.796C281.213 209.161 281.967 208.658 282.797 208.314C283.626 207.971 284.516 207.794 285.413 207.794H285.414L296.143 207.794L296.143 214.851Z" fill="#2F2E41"/>
<path d="M298.41 124.68L297.109 201.837C297.105 202.081 297.051 202.322 296.949 202.545C296.848 202.767 296.701 202.966 296.52 203.129C296.338 203.292 296.124 203.416 295.892 203.493C295.66 203.57 295.414 203.599 295.171 203.577L288.795 202.997C288.377 202.959 287.986 202.775 287.691 202.476C287.396 202.177 287.217 201.784 287.184 201.365L283.452 153.236C283.443 153.123 283.391 153.018 283.307 152.942C283.223 152.866 283.113 152.824 283 152.827C282.886 152.829 282.778 152.874 282.697 152.954C282.616 153.033 282.569 153.141 282.564 153.254L280.699 202.484C280.681 202.944 280.487 203.378 280.155 203.697C279.824 204.016 279.382 204.194 278.923 204.194H272.085C271.632 204.194 271.197 204.021 270.867 203.711C270.537 203.401 270.338 202.977 270.311 202.526L265.524 124.235L293.966 117.128L298.41 124.68Z" fill="#2F2E41"/>
<path d="M277.78 52.2294C283.808 52.2294 288.695 47.3447 288.695 41.3191C288.695 35.2934 283.808 30.4087 277.78 30.4087C271.752 30.4087 266.865 35.2934 266.865 41.3191C266.865 47.3447 271.752 52.2294 277.78 52.2294Z" fill="#FFB8B8"/>
<path d="M264.55 126.975C264.361 126.792 264.21 126.574 264.106 126.333C264.002 126.091 263.947 125.832 263.944 125.569L263.208 72.9551C263.163 70.2787 263.969 67.6571 265.509 65.467C267.048 63.2768 269.243 61.6307 271.777 60.7653C272.799 56.1279 278.242 55.547 281.415 55.6165C282.207 55.6335 282.983 55.8411 283.677 56.2218C284.372 56.6025 284.964 57.145 285.404 57.8033L287.679 61.2134L292.692 64.1507C295.012 65.5042 296.842 67.5594 297.917 70.0197C298.993 72.48 299.26 75.2184 298.678 77.8398L297.906 81.3488C295.188 93.7688 295.447 106.655 298.661 118.956L300.214 124.875C300.295 125.183 300.301 125.506 300.231 125.817C300.162 126.128 300.019 126.418 299.815 126.663C299.61 126.908 299.35 127.1 299.057 127.224C298.763 127.348 298.444 127.399 298.126 127.375L296.322 127.236C295.854 127.201 295.413 127.001 295.077 126.673C294.741 126.345 294.532 125.909 294.486 125.442L294.187 122.459C294.182 122.404 294.156 122.353 294.115 122.316C294.074 122.279 294.021 122.259 293.966 122.259C293.911 122.259 293.858 122.279 293.817 122.316C293.776 122.353 293.75 122.404 293.745 122.459L293.456 125.347C293.407 125.835 293.181 126.288 292.819 126.62C292.458 126.952 291.987 127.14 291.497 127.147L265.974 127.54C265.964 127.54 265.953 127.54 265.943 127.54C265.422 127.541 264.923 127.338 264.55 126.975Z" fill="#3F3D56"/>
<path d="M278.634 47.6084C278.679 49.1507 279.75 50.043 281.065 50.8508C282.38 51.6587 283.918 52.0089 285.424 52.3468C285.626 52.4542 285.853 52.5077 286.082 52.5021C286.311 52.4965 286.534 52.4319 286.731 52.3148C286.928 52.1976 287.091 52.0317 287.205 51.8331C287.319 51.6345 287.38 51.4099 287.382 51.1809L288.763 45.9289C289.252 44.2512 289.607 42.5376 289.827 40.804C290.159 37.4683 289.368 33.88 287.039 31.4682C284.71 29.0564 280.67 28.1997 277.879 30.0579C274.567 25.8291 259.426 35.1722 263.161 38.1128C263.825 38.6359 264.841 37.974 265.685 37.9098C266.528 37.8456 267.473 37.9939 268.009 38.6482C268.709 39.5029 268.404 40.7762 268.692 41.8425C268.812 42.2177 269.004 42.5655 269.258 42.866C269.513 43.1665 269.824 43.4136 270.175 43.5932C270.525 43.7727 270.908 43.8812 271.301 43.9122C271.693 43.9433 272.088 43.8963 272.462 43.7741C273.16 43.4306 273.816 43.0091 274.418 42.5176C275.065 42.0869 275.882 41.7686 276.61 42.0403C277.57 42.3983 277.911 43.573 277.998 44.5934C278.144 45.6112 278.357 46.6183 278.634 47.6084Z" fill="#2F2E41"/>
<path d="M359.491 215H190.174C190.056 215 189.943 214.953 189.86 214.87C189.776 214.786 189.729 214.673 189.729 214.556C189.729 214.438 189.776 214.325 189.86 214.241C189.943 214.158 190.056 214.111 190.174 214.111H359.491C359.609 214.111 359.722 214.158 359.805 214.241C359.889 214.325 359.936 214.438 359.936 214.556C359.936 214.673 359.889 214.786 359.805 214.87C359.722 214.953 359.609 215 359.491 215Z" fill="#3F3D56"/>
<path opacity="0.2" d="M276.085 76.8491L274.308 98.6156L264.975 121.271L278.752 99.0599L276.085 76.8491Z" fill="black"/>
<path d="M262.793 129.707C263.302 129.298 263.716 128.783 264.004 128.197C264.293 127.611 264.449 126.969 264.463 126.316C264.476 125.663 264.346 125.015 264.082 124.418C263.818 123.821 263.426 123.289 262.934 122.859L268.879 108.14L260.79 109.772L256.384 123.5C255.717 124.374 255.394 125.463 255.476 126.559C255.559 127.655 256.04 128.684 256.83 129.449C257.62 130.214 258.663 130.663 259.762 130.71C260.861 130.758 261.939 130.401 262.793 129.707Z" fill="#FFB8B8"/>
<path d="M262.36 123.216L257.781 121.566C257.309 121.393 256.919 121.051 256.688 120.605C256.456 120.16 256.4 119.644 256.53 119.159L264.084 91.5198L265.235 66.5405C265.27 65.7865 265.454 65.047 265.777 64.3648C266.101 63.6827 266.556 63.0716 267.118 62.5671C267.68 62.0625 268.336 61.6746 269.049 61.4259C269.762 61.1772 270.517 61.0727 271.271 61.1183C272.024 61.164 272.762 61.359 273.439 61.692C274.117 62.025 274.721 62.4893 275.218 63.0579C275.714 63.6266 276.093 64.2882 276.331 65.0044C276.57 65.7206 276.663 66.4769 276.607 67.2296L274.55 94.5814L264.925 121.998C264.779 122.412 264.501 122.767 264.134 123.007C263.766 123.248 263.33 123.361 262.891 123.33C262.71 123.316 262.531 123.278 262.36 123.216Z" fill="#3F3D56"/>
<path d="M192.982 82.8459H61.4385C61.3207 82.8459 61.2076 82.7991 61.1243 82.7158C61.041 82.6325 60.9941 82.5195 60.9941 82.4017C60.9941 82.2839 61.041 82.1709 61.1243 82.0876C61.2076 82.0043 61.3207 81.9575 61.4385 81.9575H192.982C193.1 81.9575 193.213 82.0043 193.296 82.0876C193.379 82.1709 193.426 82.2839 193.426 82.4017C193.426 82.5195 193.379 82.6325 193.296 82.7158C193.213 82.7991 193.1 82.8459 192.982 82.8459Z" fill="#3F3D56"/>
</g>
<defs>
<clipPath id="clip0_311_4787">
<rect width="368" height="215" fill="white"/>
</clipPath>
</defs>
</svg>
