<svg width="16" height="20" viewBox="0 0 16 20" fill="none" xmlns="http://www.w3.org/2000/svg">
<path d="M8 19.8999C7.88333 19.8999 7.775 19.8916 7.675 19.8749C7.575 19.8582 7.475 19.8332 7.375 19.7999C5.125 19.0499 3.33333 17.6624 2 15.6374C0.666667 13.6124 0 11.4332 0 9.0999V4.3749C0 3.95824 0.120833 3.58324 0.3625 3.2499C0.604167 2.91657 0.916667 2.6749 1.3 2.5249L7.3 0.274902C7.53333 0.191569 7.76667 0.149902 8 0.149902C8.23333 0.149902 8.46667 0.191569 8.7 0.274902L14.7 2.5249C15.0833 2.6749 15.3958 2.91657 15.6375 3.2499C15.8792 3.58324 16 3.95824 16 4.3749V9.0999C16 11.4332 15.3333 13.6124 14 15.6374C12.6667 17.6624 10.875 19.0499 8.625 19.7999C8.525 19.8332 8.425 19.8582 8.325 19.8749C8.225 19.8916 8.11667 19.8999 8 19.8999ZM8 17.8999C9.73333 17.3499 11.1667 16.2499 12.3 14.5999C13.4333 12.9499 14 11.1166 14 9.0999V4.3749L8 2.1249L2 4.3749V9.0999C2 11.1166 2.56667 12.9499 3.7 14.5999C4.83333 16.2499 6.26667 17.3499 8 17.8999Z" fill="#1E1E1E"/>
</svg>
