<svg width="20" height="20" viewBox="0 0 20 20" fill="none" xmlns="http://www.w3.org/2000/svg">
<path d="M10.0017 19.5C8.68775 19.5 7.45267 19.2507 6.2965 18.752C5.14033 18.2533 4.13467 17.5766 3.2795 16.7218C2.42433 15.8669 1.74725 14.8617 1.24825 13.706C0.749417 12.5503 0.5 11.3156 0.5 10.0017C0.5 8.68775 0.749333 7.45267 1.248 6.2965C1.74667 5.14033 2.42342 4.13467 3.27825 3.2795C4.13308 2.42433 5.13833 1.74725 6.294 1.24825C7.44967 0.749417 8.68442 0.5 9.99825 0.5C11.3123 0.5 12.5473 0.749333 13.7035 1.248C14.8597 1.74667 15.8653 2.42342 16.7205 3.27825C17.5757 4.13308 18.2528 5.13833 18.7518 6.294C19.2506 7.44967 19.5 8.68442 19.5 9.99825C19.5 11.3123 19.2507 12.5473 18.752 13.7035C18.2533 14.8597 17.5766 15.8653 16.7218 16.7205C15.8669 17.5757 14.8617 18.2528 13.706 18.7518C12.5503 19.2506 11.3156 19.5 10.0017 19.5ZM7.5 11.25C8.4025 11.25 9.16983 10.934 9.802 10.302C10.434 9.66983 10.75 8.9025 10.75 8C10.75 7.0975 10.434 6.33017 9.802 5.698C9.16983 5.066 8.4025 4.75 7.5 4.75C6.5975 4.75 5.83017 5.066 5.198 5.698C4.566 6.33017 4.25 7.0975 4.25 8C4.25 8.9025 4.566 9.66983 5.198 10.302C5.83017 10.934 6.5975 11.25 7.5 11.25ZM14.5 12.4423C15.1838 12.4423 15.7618 12.2062 16.234 11.734C16.7062 11.2618 16.9423 10.6838 16.9423 10C16.9423 9.31617 16.7062 8.73817 16.234 8.266C15.7618 7.79383 15.1838 7.55775 14.5 7.55775C13.8162 7.55775 13.2382 7.79383 12.766 8.266C12.2938 8.73817 12.0577 9.31617 12.0577 10C12.0577 10.6838 12.2938 11.2618 12.766 11.734C13.2382 12.2062 13.8162 12.4423 14.5 12.4423ZM10 18C11.3653 18 12.6153 17.6891 13.75 17.0673C14.8847 16.4456 15.8167 15.6136 16.5462 14.5712C16.2154 14.4776 15.8795 14.4007 15.5385 14.3405C15.1975 14.2802 14.8513 14.25 14.5 14.25C13.5462 14.25 12.4875 14.5243 11.324 15.073C10.1605 15.6218 9.23583 16.552 8.55 17.8635C8.79483 17.9173 9.0365 17.9535 9.275 17.972C9.5135 17.9907 9.75517 18 10 18ZM6.7095 17.2922C7.19667 16.2974 7.747 15.5243 8.3605 14.973C8.974 14.4218 9.52367 13.9821 10.0095 13.6538C9.62233 13.5359 9.20375 13.4392 8.75375 13.3635C8.30375 13.2878 7.857 13.25 7.4135 13.25C6.68267 13.25 5.97467 13.3401 5.2895 13.5203C4.60417 13.7004 3.93908 13.9603 3.29425 14.3C3.70842 14.9462 4.2055 15.5279 4.7855 16.0452C5.36567 16.5626 6.007 16.9783 6.7095 17.2922Z" fill="#1E1E1E"/>
</svg>
