<svg width="24" height="24" viewBox="0 0 24 24" fill="none" xmlns="http://www.w3.org/2000/svg">
<path d="M17 21.5002C15.7513 21.5002 14.6892 21.0624 13.8135 20.1867C12.9378 19.311 12.5 18.2488 12.5 17.0002C12.5 15.7515 12.9378 14.6894 13.8135 13.8137C14.6892 12.938 15.7513 12.5002 17 12.5002C18.2487 12.5002 19.3108 12.938 20.1865 13.8137C21.0622 14.6894 21.5 15.7515 21.5 17.0002C21.5 18.2488 21.0622 19.311 20.1865 20.1867C19.3108 21.0624 18.2487 21.5002 17 21.5002ZM4.5 11.1002V6.59643C4.5 6.2181 4.60967 5.87677 4.829 5.57243C5.04817 5.26793 5.33017 5.0471 5.675 4.90993L11.3672 2.78493C11.5814 2.70793 11.7923 2.66943 12 2.66943C12.2077 2.66943 12.4186 2.70793 12.6328 2.78493L18.325 4.90993C18.6698 5.0471 18.9518 5.26793 19.171 5.57243C19.3903 5.87677 19.5 6.2181 19.5 6.59643V9.90593C19.5 10.1636 19.391 10.3735 19.173 10.5357C18.955 10.698 18.714 10.7471 18.45 10.6829C18.2142 10.6188 17.9751 10.5723 17.7327 10.5434C17.4904 10.5146 17.2462 10.5002 17 10.5002C15.2013 10.5002 13.6683 11.1339 12.401 12.4012C11.1337 13.6685 10.5 15.2015 10.5 17.0002C10.5 17.4759 10.5545 17.9486 10.6635 18.4184C10.7725 18.8883 10.9373 19.3655 11.1578 19.8502C11.2949 20.1412 11.2539 20.4021 11.0348 20.6329C10.8154 20.8636 10.5602 20.9136 10.2692 20.7829C9.53725 20.4291 8.86992 19.9887 8.26725 19.4617C7.66475 18.9349 7.1225 18.3323 6.6405 17.6539C5.96867 16.7219 5.444 15.6988 5.0665 14.5847C4.68883 13.4707 4.5 12.3092 4.5 11.1002ZM17 17.0002C17.4167 17.0002 17.7708 16.8544 18.0625 16.5627C18.3542 16.271 18.5 15.9169 18.5 15.5002C18.5 15.0835 18.3542 14.7294 18.0625 14.4377C17.7708 14.146 17.4167 14.0002 17 14.0002C16.5833 14.0002 16.2292 14.146 15.9375 14.4377C15.6458 14.7294 15.5 15.0835 15.5 15.5002C15.5 15.9169 15.6458 16.271 15.9375 16.5627C16.2292 16.8544 16.5833 17.0002 17 17.0002ZM17 20.0002C17.423 20.0002 17.8243 19.9194 18.2038 19.7579C18.5833 19.5964 18.9147 19.3593 19.198 19.0464C19.275 18.9528 19.3036 18.8498 19.2837 18.7377C19.2638 18.6255 19.1967 18.5393 19.0828 18.4789C18.7596 18.3161 18.4224 18.1956 18.0712 18.1174C17.7199 18.0393 17.3628 18.0002 17 18.0002C16.6372 18.0002 16.2801 18.0393 15.9288 18.1174C15.5776 18.1956 15.2404 18.3161 14.9173 18.4789C14.8033 18.5393 14.7363 18.6255 14.7163 18.7377C14.6964 18.8498 14.725 18.9528 14.802 19.0464C15.0853 19.3593 15.4167 19.5964 15.7962 19.7579C16.1757 19.9194 16.577 20.0002 17 20.0002Z" fill="#006926"/>
</svg>
