<svg width="16" height="18" viewBox="0 0 16 18" fill="none" xmlns="http://www.w3.org/2000/svg">
<path d="M6.82388 3.47138L1.79737 8.49788C1.59737 8.69788 1.35413 8.80225 1.06763 8.811C0.780875 8.81975 0.53125 8.71537 0.31875 8.49788C0.10625 8.28537 0 8.04025 0 7.7625C0 7.4845 0.10625 7.23925 0.31875 7.02675L6.95775 0.388124C7.2165 0.129374 7.5165 0 7.85775 0C8.19925 0 8.50163 0.129374 8.76488 0.388124L15.4271 7.05713C15.6224 7.25238 15.7224 7.49325 15.7271 7.77975C15.7319 8.06625 15.6319 8.31187 15.4271 8.51662C15.2224 8.72162 14.9791 8.82413 14.6974 8.82413C14.4156 8.82413 14.1724 8.72162 13.9676 8.51662L8.92237 3.483V16.647C8.92237 16.9385 8.81962 17.1869 8.61413 17.3921C8.40888 17.5974 8.163 17.7 7.8765 17.7C7.58525 17.7 7.337 17.5974 7.13175 17.3921C6.9265 17.1869 6.82388 16.9385 6.82388 16.647V3.47138Z" fill="#006926"/>
</svg>
