<svg width="19" height="18" viewBox="0 0 19 18" fill="none" xmlns="http://www.w3.org/2000/svg">
<path d="M1.5 18C1.21667 18 0.979167 17.9042 0.7875 17.7125C0.595833 17.5208 0.5 17.2833 0.5 17V14.575C0.5 14.3083 0.55 14.0542 0.65 13.8125C0.75 13.5708 0.891667 13.3583 1.075 13.175L13.7 0.575C13.9 0.391667 14.1208 0.25 14.3625 0.15C14.6042 0.05 14.8583 0 15.125 0C15.3917 0 15.65 0.05 15.9 0.15C16.15 0.25 16.3667 0.4 16.55 0.6L17.925 2C18.125 2.18333 18.2708 2.4 18.3625 2.65C18.4542 2.9 18.5 3.15 18.5 3.4C18.5 3.66667 18.4542 3.92083 18.3625 4.1625C18.2708 4.40417 18.125 4.625 17.925 4.825L5.325 17.425C5.14167 17.6083 4.92917 17.75 4.6875 17.85C4.44583 17.95 4.19167 18 3.925 18H1.5ZM15.1 4.8L16.5 3.4L15.1 2L13.7 3.4L15.1 4.8Z" fill="#1E1E1E"/>
</svg>
