<svg width="15" height="14" viewBox="0 0 15 14" fill="none" xmlns="http://www.w3.org/2000/svg">
<path d="M6.5 8H1.5C1.21667 8 0.979167 7.90417 0.7875 7.7125C0.595833 7.52083 0.5 7.28333 0.5 7C0.5 6.71667 0.595833 6.47917 0.7875 6.2875C0.979167 6.09583 1.21667 6 1.5 6H6.5V1C6.5 0.716667 6.59583 0.479167 6.7875 0.2875C6.97917 0.0958333 7.21667 0 7.5 0C7.78333 0 8.02083 0.0958333 8.2125 0.2875C8.40417 0.479167 8.5 0.716667 8.5 1V6H13.5C13.7833 6 14.0208 6.09583 14.2125 6.2875C14.4042 6.47917 14.5 6.71667 14.5 7C14.5 7.28333 14.4042 7.52083 14.2125 7.7125C14.0208 7.90417 13.7833 8 13.5 8H8.5V13C8.5 13.2833 8.40417 13.5208 8.2125 13.7125C8.02083 13.9042 7.78333 14 7.5 14C7.21667 14 6.97917 13.9042 6.7875 13.7125C6.59583 13.5208 6.5 13.2833 6.5 13V8Z" fill="#E3E3E3"/>
</svg>
