<svg width="24" height="24" viewBox="0 0 24 24" fill="none" xmlns="http://www.w3.org/2000/svg">
<path d="M12.0017 21.5C10.6877 21.5 9.45267 21.2507 8.2965 20.752C7.14033 20.2533 6.13467 19.5766 5.2795 18.7218C4.42433 17.8669 3.74725 16.8617 3.24825 15.706C2.74942 14.5503 2.5 13.3156 2.5 12.0017C2.5 10.6877 2.74933 9.45267 3.248 8.2965C3.74667 7.14033 4.42342 6.13467 5.27825 5.2795C6.13308 4.42433 7.13833 3.74725 8.294 3.24825C9.44967 2.74942 10.6844 2.5 11.9983 2.5C13.3123 2.5 14.5473 2.74933 15.7035 3.248C16.8597 3.74667 17.8653 4.42342 18.7205 5.27825C19.5757 6.13308 20.2528 7.13833 20.7518 8.294C21.2506 9.44967 21.5 10.6844 21.5 11.9983C21.5 13.3123 21.2507 14.5473 20.752 15.7035C20.2533 16.8597 19.5766 17.8653 18.7218 18.7205C17.8669 19.5757 16.8617 20.2528 15.706 20.7518C14.5503 21.2506 13.3156 21.5 12.0017 21.5ZM9.5 13.25C10.4025 13.25 11.1698 12.934 11.802 12.302C12.434 11.6698 12.75 10.9025 12.75 10C12.75 9.0975 12.434 8.33017 11.802 7.698C11.1698 7.066 10.4025 6.75 9.5 6.75C8.5975 6.75 7.83017 7.066 7.198 7.698C6.566 8.33017 6.25 9.0975 6.25 10C6.25 10.9025 6.566 11.6698 7.198 12.302C7.83017 12.934 8.5975 13.25 9.5 13.25ZM16.5 14.4423C17.1838 14.4423 17.7618 14.2062 18.234 13.734C18.7062 13.2618 18.9423 12.6838 18.9423 12C18.9423 11.3162 18.7062 10.7382 18.234 10.266C17.7618 9.79383 17.1838 9.55775 16.5 9.55775C15.8162 9.55775 15.2382 9.79383 14.766 10.266C14.2938 10.7382 14.0577 11.3162 14.0577 12C14.0577 12.6838 14.2938 13.2618 14.766 13.734C15.2382 14.2062 15.8162 14.4423 16.5 14.4423ZM12 20C13.3653 20 14.6153 19.6891 15.75 19.0673C16.8847 18.4456 17.8167 17.6136 18.5462 16.5712C18.2154 16.4776 17.8795 16.4007 17.5385 16.3405C17.1975 16.2802 16.8513 16.25 16.5 16.25C15.5462 16.25 14.4875 16.5243 13.324 17.073C12.1605 17.6218 11.2358 18.552 10.55 19.8635C10.7948 19.9173 11.0365 19.9535 11.275 19.972C11.5135 19.9907 11.7552 20 12 20ZM8.7095 19.2922C9.19667 18.2974 9.747 17.5243 10.3605 16.973C10.974 16.4218 11.5237 15.9821 12.0095 15.6538C11.6223 15.5359 11.2037 15.4392 10.7537 15.3635C10.3038 15.2878 9.857 15.25 9.4135 15.25C8.68267 15.25 7.97467 15.3401 7.2895 15.5203C6.60417 15.7004 5.93908 15.9603 5.29425 16.3C5.70842 16.9462 6.2055 17.5279 6.7855 18.0452C7.36567 18.5626 8.007 18.9783 8.7095 19.2922Z" fill="#E70041"/>
</svg>
