<svg width="19" height="19" viewBox="0 0 19 19" fill="none" xmlns="http://www.w3.org/2000/svg">
<path d="M9.1001 15.5C8.6876 15.5 8.33447 15.3531 8.04072 15.0594C7.74697 14.7656 7.6001 14.4125 7.6001 14C7.6001 13.5875 7.74697 13.2344 8.04072 12.9406C8.33447 12.6469 8.6876 12.5 9.1001 12.5C9.5126 12.5 9.86572 12.6469 10.1595 12.9406C10.4532 13.2344 10.6001 13.5875 10.6001 14C10.6001 14.4125 10.4532 14.7656 10.1595 15.0594C9.86572 15.3531 9.5126 15.5 9.1001 15.5ZM9.1001 11C8.6876 11 8.33447 10.8531 8.04072 10.5594C7.74697 10.2656 7.6001 9.9125 7.6001 9.5C7.6001 9.0875 7.74697 8.73438 8.04072 8.44063C8.33447 8.14688 8.6876 8 9.1001 8C9.5126 8 9.86572 8.14688 10.1595 8.44063C10.4532 8.73438 10.6001 9.0875 10.6001 9.5C10.6001 9.9125 10.4532 10.2656 10.1595 10.5594C9.86572 10.8531 9.5126 11 9.1001 11ZM9.1001 6.5C8.6876 6.5 8.33447 6.35313 8.04072 6.05938C7.74697 5.76562 7.6001 5.4125 7.6001 5C7.6001 4.5875 7.74697 4.23438 8.04072 3.94063C8.33447 3.64687 8.6876 3.5 9.1001 3.5C9.5126 3.5 9.86572 3.64687 10.1595 3.94063C10.4532 4.23438 10.6001 4.5875 10.6001 5C10.6001 5.4125 10.4532 5.76562 10.1595 6.05938C9.86572 6.35313 9.5126 6.5 9.1001 6.5Z" fill="#1E1E1E"/>
</svg>
