<svg width="12" height="20" viewBox="0 0 12 20" fill="none" xmlns="http://www.w3.org/2000/svg">
<path d="M6.00011 17.1501L9.87511 13.2751C10.0751 13.0751 10.3084 12.9751 10.5751 12.9751C10.8418 12.9751 11.0751 13.0751 11.2751 13.2751C11.4751 13.4751 11.5751 13.7126 11.5751 13.9876C11.5751 14.2626 11.4751 14.5001 11.2751 14.7001L7.42511 18.5751C7.04178 18.9584 6.56678 19.1501 6.00011 19.1501C5.43344 19.1501 4.95844 18.9584 4.57511 18.5751L0.700109 14.7001C0.500109 14.5001 0.404276 14.2626 0.412609 13.9876C0.420943 13.7126 0.525109 13.4751 0.725109 13.2751C0.925109 13.0751 1.16261 12.9751 1.43761 12.9751C1.71261 12.9751 1.95011 13.0751 2.15011 13.2751L6.00011 17.1501ZM6.00011 2.8501L2.15011 6.7001C1.95011 6.9001 1.71678 6.99593 1.45011 6.9876C1.18344 6.97926 0.950109 6.88343 0.750109 6.7001C0.550109 6.5001 0.445943 6.2626 0.437609 5.9876C0.429276 5.7126 0.525109 5.4751 0.725109 5.2751L4.57511 1.4251C4.95844 1.04176 5.43344 0.850098 6.00011 0.850098C6.56678 0.850098 7.04178 1.04176 7.42511 1.4251L11.2751 5.2751C11.4751 5.4751 11.5709 5.7126 11.5626 5.9876C11.5543 6.2626 11.4501 6.5001 11.2501 6.7001C11.0501 6.88343 10.8168 6.97926 10.5501 6.9876C10.2834 6.99593 10.0501 6.9001 9.85011 6.7001L6.00011 2.8501Z" fill="#1E1E1E"/>
</svg>
